<?xml version="1.0" encoding="iso-8859-1"?>
<!-- Generator: Adobe Illustrator 19.0.0, SVG Export Plug-In . SVG Version: 6.00 Build 0)  -->
<svg xmlns="http://www.w3.org/2000/svg" xmlns:xlink="http://www.w3.org/1999/xlink" version="1.1" id="Layer_1" x="0px" y="0px" viewBox="0 0 512 512" style="enable-background:new 0 0 512 512;" xml:space="preserve">
<path style="fill:#71B4E0;" d="M511.997,282.863v107.955c0,0.542-0.011,1.094-0.021,1.636c-0.86,44.646-37.327,80.56-82.185,80.56  H126.247c-43.201,0-78.223-35.022-78.223-78.234v-29.466c0-10.07-6.097-19.258-15.509-22.859C13.501,335.189,0,316.771,0,295.207  h22.679c27.735,0,50.244,22.318,50.562,49.978h0.021c0.319-27.661,22.827-49.978,50.562-49.978h22.679  c0,20.501-12.205,38.145-29.732,46.08c-8.668,3.92-14.064,12.726-14.064,22.222v4.281c0,10.495,4.249,19.991,11.122,26.875  c6.883,6.873,16.38,11.122,26.875,11.122c20.979,0,37.985-17.006,37.985-37.996v-84.926c0-37.21,12.194-71.573,32.802-99.298  c30.369-40.875,79.02-67.356,133.852-67.356C437.385,116.209,511.997,190.821,511.997,282.863z"/>
<path style="fill:#4C98C6;" d="M511.976,392.455c-0.86,44.646-37.327,80.56-82.185,80.56H126.247  c-43.201,0-78.223-35.022-78.223-78.234v-29.466c0-10.07-6.097-19.258-15.509-22.859C13.501,335.189,0,316.771,0,295.207h22.679  c27.735,0,50.244,22.318,50.562,49.978h0.021c0.319-27.661,22.827-49.978,50.562-49.978h22.679c0,20.501-12.205,38.145-29.732,46.08  c-8.668,3.92-14.064,12.726-14.064,22.222v4.281c0,10.495,4.249,19.991,11.122,26.875c6.883,6.873,16.38,11.122,26.875,11.122  c20.979,0,37.985-17.006,37.985-37.996v-84.926c0-37.21,12.194-71.573,32.802-99.298c0,0-17.559,157.582,85.998,207.253  C360.278,420.933,450.589,407.612,511.976,392.455z"/>
<path style="fill:#E6EBED;" d="M512,329.676v61.132c0,0.552-0.011,1.094-0.021,1.646c-0.839,43.265-35.139,78.35-78.095,80.454  c-1.349,0.074-2.719,0.106-4.09,0.106H242.437V409.8c0-18.037,5.81-34.724,15.657-48.268c14.638-20.151,38.209-33.397,64.902-33.907  c0.542-0.021,1.094-0.032,1.636-0.032h168.906C499.891,327.594,506.062,328.316,512,329.676z"/>
<path style="fill:#DBDDDD;" d="M511.976,392.455c-0.871,44.635-37.338,80.56-82.185,80.56H242.434v-63.214  c0-18.037,5.81-34.724,15.657-48.268c10.654,11.642,23.613,21.712,39.398,29.286C360.278,420.933,450.589,407.612,511.976,392.455z"/>
<g>
	<path style="fill:#BFBFBF;" d="M471.306,327.594v67.611c0,31.941-14.765,60.282-37.423,77.702c-1.349,0.074-2.719,0.106-4.09,0.106   h-31.623c32.749-8.307,57.201-40.046,57.201-77.809v-67.611H471.306z"/>
	<path style="fill:#BFBFBF;" d="M405.118,327.594v67.611c0,31.994-14.818,60.377-37.55,77.809h-35.585   c32.749-8.307,57.201-40.046,57.201-77.809v-67.611H405.118z"/>
	<path style="fill:#BFBFBF;" d="M338.93,327.594v67.611c0,31.994-14.818,60.377-37.539,77.809h-35.595   c32.759-8.307,57.201-40.046,57.201-77.809v-67.579c0.542-0.021,1.094-0.032,1.636-0.032H338.93z"/>
</g>
<g>
	<path style="fill:#4D4D4D;" d="M408.003,289.885c-4.401,0-7.967-3.567-7.967-7.967v-17.256c0-4.4,3.566-7.967,7.967-7.967   c4.401,0,7.967,3.567,7.967,7.967v17.256C415.97,286.318,412.403,289.885,408.003,289.885z"/>
	<path style="fill:#4D4D4D;" d="M438.703,289.885c-4.401,0-7.967-3.567-7.967-7.967v-17.256c0-4.4,3.566-7.967,7.967-7.967   s7.967,3.567,7.967,7.967v17.256C446.669,286.318,443.104,289.885,438.703,289.885z"/>
</g>
<g>
	<path style="fill:#78DDCA;" d="M340.775,105.715c-4.401,0-7.967-3.567-7.967-7.967V46.952c0-4.4,3.566-7.967,7.967-7.967   s7.967,3.567,7.967,7.967v50.796C348.742,102.148,345.175,105.715,340.775,105.715z"/>
	<path style="fill:#78DDCA;" d="M314.495,105.717c-2.711,0-5.353-1.383-6.844-3.879l-20.712-34.633   c-2.258-3.776-1.028-8.668,2.748-10.926c3.779-2.257,8.67-1.027,10.926,2.748l20.712,34.633c2.258,3.776,1.028,8.668-2.748,10.926   C317.295,105.351,315.885,105.717,314.495,105.717z"/>
	<path style="fill:#78DDCA;" d="M367.056,105.717c-1.393,0-2.801-0.364-4.082-1.13c-3.776-2.258-5.006-7.15-2.748-10.926   l20.712-34.633c2.258-3.776,7.152-5.004,10.926-2.748c3.776,2.258,5.006,7.15,2.748,10.926L373.9,101.838   C372.409,104.333,369.766,105.717,367.056,105.717z"/>
</g>
<g>
</g>
<g>
</g>
<g>
</g>
<g>
</g>
<g>
</g>
<g>
</g>
<g>
</g>
<g>
</g>
<g>
</g>
<g>
</g>
<g>
</g>
<g>
</g>
<g>
</g>
<g>
</g>
<g>
</g>
</svg>
